<?xml version="1.0" encoding="UTF-8"?>
<svg width="512pt" height="512pt" version="1.1" viewBox="0 0 512 512" xmlns="http://www.w3.org/2000/svg">
 <path d="m499.2 256c0-134.14-109.05-243.2-243.2-243.2s-243.2 109.05-243.2 243.2 109.05 243.2 243.2 243.2 243.2-109.05 243.2-243.2zm-259.58 83.969-93.695-94.207c-4.6094-4.6094-6.6562-10.238-6.6562-16.383 0-6.1445 2.0469-11.777 6.6562-16.383 8.7031-8.7031 23.551-8.7031 32.258 0l77.82 78.332 77.824-77.824c8.7031-8.7031 23.551-8.7031 32.258 0 8.7031 8.7031 8.7031 23.551 0 32.258l-93.699 94.207c-4.0977 4.0977-10.238 6.6562-16.383 6.6562s-11.777-2.5625-16.383-6.6562z" fill="#f4f4f4"/>
</svg>
